<?xml version="1.0" encoding="UTF-8" standalone="no"?> <!-- Created with Vectornator for iOS (http://vectornator.io/) --><!DOCTYPE svg PUBLIC "-//W3C//DTD SVG 1.1//EN" "http://www.w3.org/Graphics/SVG/1.1/DTD/svg11.dtd">
<svg height="100%" style="fill-rule:evenodd;clip-rule:evenodd;stroke-linecap:round;stroke-linejoin:round;" xmlns:xlink="http://www.w3.org/1999/xlink" xmlns="http://www.w3.org/2000/svg" xml:space="preserve" width="100%" xmlns:vectornator="http://vectornator.io" version="1.1" viewBox="0 0 2000 2000">
<metadata>
<vectornator:setting key="GridSpacing" value="36"/>
<vectornator:setting key="DimensionsVisible" value="1"/>
<vectornator:setting key="SnapToPoints" value="0"/>
<vectornator:setting key="GuidesVisible" value="1"/>
<vectornator:setting key="RulersVisible" value="1"/>
<vectornator:setting key="CMYKEnabledKey" value="0"/>
<vectornator:setting key="SnapToEdges" value="0"/>
<vectornator:setting key="DisplayWhiteBackground" value="0"/>
<vectornator:setting key="SnapToGuides" value="1"/>
<vectornator:setting key="Units" value="Pixels"/>
<vectornator:setting key="DynamicGuides" value="0"/>
<vectornator:setting key="SnapToGrid" value="0"/>
<vectornator:setting key="New" value="1"/>
</metadata>
<defs>
<linearGradient y1="1804.68" id="LinearGradient" x1="997.358" y2="-213.042" x2="996.943" gradientUnits="userSpaceOnUse" gradientTransform="matrix(0.971774 0 0 0.949715 28.226 13.1225)">
<stop stop-color="#ff85c7" offset="0"/>
<stop stop-color="#ffffff" offset="1"/>
</linearGradient>
<linearGradient y1="152.96" id="LinearGradient_2" x1="897.555" y2="900.843" x2="1569" gradientUnits="userSpaceOnUse" gradientTransform="matrix(0.88376 0 0 0.88376 115.366 -18.5665)">
<stop stop-color="#d5d3d3" offset="0"/>
<stop stop-color="#847f7f" offset="0.980211"/>
</linearGradient>
<linearGradient y1="458.148" id="LinearGradient_3" x1="508.455" y2="907.034" x2="1041.32" gradientUnits="userSpaceOnUse" gradientTransform="matrix(0.84834 0 0 0.84834 150.895 9.74824)">
<stop stop-color="#ffbc00" offset="0"/>
<stop stop-color="#ffe200" offset="1"/>
</linearGradient>
<linearGradient y1="984.809" id="LinearGradient_4" x1="1021.13" y2="1547.24" x2="1703.57" gradientUnits="userSpaceOnUse" gradientTransform="matrix(0.88376 0 0 0.88376 123.368 -9.92907)">
<stop stop-color="#ff0000" offset="0"/>
<stop stop-color="#fe6d6d" offset="0"/>
<stop stop-color="#ff0000" offset="1"/>
</linearGradient>
</defs>
<g id="Layer 1" vectornator:layerName="Layer 1">
<path d="M-7.3879-12.9453L2000.03-12.9453L2000.03+2009.33L-7.3879+2009.33L-7.3879-12.9453Z" opacity="1" fill="#ffffff"/>
</g>
<g id="Pink" vectornator:layerName="Pink">
<path d="M118.864+0.382744L1881.14+0.382744L1881.14+1726.84L118.864+1726.84L118.864+0.382744Z" opacity="1" fill="url(#LinearGradient)"/>
</g>
<g id="DM Logo" vectornator:layerName="DM Logo">
<path d="M163.803+865.193C163.803+403.858+537.79+29.8708+999.126+29.8708C1460.46+29.8708+1834.45+403.858+1834.45+865.193C1834.45+1326.53+1460.46+1700.52+999.126+1700.52C537.79+1700.52+163.803+1326.53+163.803+865.193Z" opacity="1" fill="url(#LinearGradient_2)"/>
<path d="M461.155+1452.59C299.155+1305.88+197.391+1093.87+197.391+858.089C197.391+415.242+556.389+56.2443+999.236+56.2443C1185.61+56.2443+1357.13+119.829+1493.29+226.489" opacity="1" fill="url(#LinearGradient_3)"/>
<path d="M1539.61+275.112C1701.62+421.828+1803.38+633.838+1803.38+869.615C1803.38+1312.46+1444.38+1671.46+1001.53+1671.46C815.161+1671.46+643.639+1607.87+507.477+1501.21" opacity="1" fill="url(#LinearGradient_4)"/>
<path d="M431.984+341.378L431.984+336.26L662.601+336.26C721.279+336.26+767.618+340.866+801.619+350.077C835.621+359.288+865.244+373.787+890.489+393.573C915.734+413.36+935.748+438.662+950.531+469.479C965.314+500.296+972.706+534.696+972.706+572.677C972.706+609.294+965.03+645.285+949.678+680.651C934.327+716.017+913.46+746.493+887.077+772.079C860.695+797.665+832.891+815.178+803.666+824.616C774.441+834.055+729.239+838.774+668.059+838.774L431.984+838.774L431.984+833.998L438.124+833.998C450.406+833.998+458.48+829.051+462.346+819.158C466.212+809.264+468.145+791.354+468.145+765.427L468.145+399.373C468.145+372.081+465.814+355.592+461.152+349.906C456.49+344.22+446.767+341.378+431.984+341.378ZM603.241+346.836L526.141+346.836L526.141+736.77C526.141+761.333+530.292+779.584+538.593+791.525C546.894+803.465+561.052+812.107+581.066+817.452C601.08+822.797+628.031+825.469+661.919+825.469C756.076+825.469+822.202+801.304+860.297+752.975C898.392+704.645+917.44+651.938+917.44+594.852C917.44+527.759+891.342+469.65+839.146+420.524C786.95+371.399+708.315+346.836+603.241+346.836Z" opacity="1" fill="#959494"/>
<path d="M1486.95+884.188L1563.07+884.188L1563.07+889.125C1537.48+890.442+1524.68+903.937+1524.68+929.612C1524.68+935.098+1525.34+942.669+1526.65+952.324L1577.17+1319.67C1580.24+1338.1+1583.68+1349.9+1587.51+1355.06C1591.34+1360.21+1599.26+1363.34+1611.29+1364.44L1611.29+1369.04L1502.7+1369.04L1502.7+1364.44C1516.92+1364.88+1524.03+1357.85+1524.03+1343.37C1524.03+1340.08+1523.37+1333.6+1522.06+1323.95L1472.85+967.795L1299.62+1369.04L1296.34+1369.04L1122.14+968.453L1073.25+1326.58C1072.38+1332.07+1071.94+1338.32+1071.94+1345.34C1071.94+1358.07+1079.27+1364.44+1093.92+1364.44L1093.92+1369.04L1020.11+1369.04L1020.11+1364.44C1031.26+1364.44+1038.42+1363.01+1041.59+1360.16C1044.77+1357.3+1047.23+1352.86+1048.98+1346.83C1050.73+1340.79+1052.04+1334.04+1052.91+1326.58L1108.03+934.879C1099.06+913.154+1090.09+900.097+1081.13+895.708C1072.16+891.319+1063.52+889.125+1055.21+889.125L1055.21+884.188L1146.41+884.188L1316.36+1280.83L1486.95+884.188Z" opacity="1" fill="#b2b0b0"/>
</g>
<g id="Text" vectornator:layerName="Text">
<g opacity="1">
<path d="M513.774+1757.27L513.774+1756.44L551.403+1756.44C560.978+1756.44+568.539+1757.19+574.086+1758.69C579.634+1760.2+584.468+1762.56+588.587+1765.79C592.706+1769.02+595.972+1773.15+598.384+1778.18C600.796+1783.2+602.002+1788.82+602.002+1795.01C602.002+1800.99+600.75+1806.86+598.245+1812.63C595.74+1818.4+592.335+1823.37+588.03+1827.55C583.726+1831.72+579.189+1834.58+574.42+1836.12C569.652+1837.66+562.276+1838.43+552.294+1838.43L513.774+1838.43L513.774+1837.65L514.776+1837.65C516.78+1837.65+518.098+1836.85+518.729+1835.23C519.359+1833.62+519.675+1830.69+519.675+1826.46L519.675+1766.74C519.675+1762.28+519.294+1759.59+518.534+1758.67C517.773+1757.74+516.187+1757.27+513.774+1757.27ZM541.718+1758.16L529.138+1758.16L529.138+1821.79C529.138+1825.8+529.815+1828.77+531.169+1830.72C532.524+1832.67+534.834+1834.08+538.1+1834.95C541.365+1835.82+545.763+1836.26+551.292+1836.26C566.655+1836.26+577.445+1832.32+583.661+1824.43C589.876+1816.55+592.984+1807.95+592.984+1798.63C592.984+1787.68+588.726+1778.2+580.209+1770.19C571.693+1762.17+558.862+1758.16+541.718+1758.16Z" opacity="1" fill="#959494"/>
<path d="M610.129+1757.27L610.129+1756.44L633.396+1756.44C639.297+1756.44+643.564+1756.57+646.199+1756.83C648.834+1757.09+651.534+1757.95+654.298+1759.42C657.063+1760.88+659.15+1762.87+660.561+1765.37C661.971+1767.88+662.676+1770.95+662.676+1774.59C662.676+1778.74+661.423+1782.7+658.918+1786.47C656.414+1790.24+652.879+1793.42+648.314+1796.02L654.104+1804.92C655.365+1807.15+658.714+1812.03+664.151+1819.56C669.587+1827.09+673.79+1831.69+676.759+1833.34C679.728+1834.99+682.604+1835.82+685.387+1835.82C688.133+1835.82+691.287+1834.76+694.85+1832.64L695.184+1833.76C690.73+1837.39+684.941+1839.21+677.816+1839.21C673.066+1839.21+668.984+1837.81+665.57+1835.01C662.156+1832.21+656.219+1824.5+647.758+1811.88C647.684+1811.81+647.646+1811.73+647.646+1811.66L639.408+1798.97L632.116+1799.19L625.492+1799.19L625.492+1830.58C625.492+1833.11+625.826+1834.92+626.494+1836.01C627.162+1837.11+628.776+1837.65+631.337+1837.65L631.337+1838.43L610.129+1838.43L610.129+1837.65C612.764+1837.54+614.406+1836.98+615.055+1835.98C615.705+1834.98+616.029+1832.94+616.029+1829.86L616.029+1764.68C616.029+1762.56+615.751+1760.81+615.194+1759.42C614.638+1758.03+612.949+1757.31+610.129+1757.27ZM625.492+1758.61L625.492+1797.07L634.064+1797.07C640.818+1797.07+645.828+1795.48+649.094+1792.29C652.359+1789.09+653.992+1784.9+653.992+1779.71C653.992+1774.66+652.387+1769.88+649.177+1765.37C645.967+1760.86+640.317+1758.61+632.228+1758.61L625.492+1758.61Z" opacity="1" fill="#959494"/>
<path d="M700.416+1757.39L700.416+1756.44L751.961+1756.44L751.961+1767.74L751.126+1767.74C750.013+1763.55+749.076+1761.08+748.315+1760.34C747.554+1759.59+745.689+1759.22+742.721+1759.22L715.668+1759.22L715.668+1796.02L740.772+1796.02C743.259+1796.02+744.836+1795.78+745.504+1795.32C746.172+1794.86+746.524+1794.18+746.562+1793.29L747.396+1793.29L747.396+1801.03L746.562+1801.03C746.376+1799.95+745.94+1799.23+745.253+1798.85C744.567+1798.48+743.296+1798.3+741.44+1798.3L715.668+1798.3L715.668+1823.63C715.668+1827.45+716.021+1830.2+716.726+1831.89C717.431+1833.58+718.553+1834.64+720.093+1835.06C721.633+1835.49+723.962+1835.7+727.079+1835.7L741.552+1835.7C746.153+1835.7+749.094+1835.55+750.375+1835.23C751.655+1834.92+752.74+1834.28+753.631+1833.34C754.521+1832.39+755.208+1830.32+755.69+1827.13L756.47+1827.13L756.47+1838.43L700.416+1838.43L700.416+1837.65C702.309+1837.54+703.747+1837.18+704.73+1836.57C705.713+1835.95+706.205+1834.37+706.205+1831.81L706.205+1765.57C706.205+1762.56+705.945+1760.45+705.426+1759.22C704.906+1758+703.236+1757.39+700.416+1757.39Z" opacity="1" fill="#959494"/>
<path d="M805.398+1800.69L781.463+1800.69L769.05+1831.7C768.196+1833.92+767.77+1835.3+767.77+1835.82C767.77+1837.04+768.679+1837.65+770.497+1837.65L770.497+1838.43L758.307+1838.43L758.307+1837.65C759.939+1837.65+761.312+1837.25+762.426+1836.46C763.539+1835.66+764.764+1833.59+766.1+1830.25L795.824+1755.21L797.216+1755.21L826.495+1827.69C826.495+1828.06+827.247+1829.81+828.75+1832.95C830.252+1836.08+832.544+1837.65+835.624+1837.65L835.624+1838.43L816.476+1838.43L816.476+1837.65C818.22+1837.65+819.092+1836.97+819.092+1835.59C819.092+1834.67+818.665+1833.18+817.812+1831.14C817.663+1830.99+817.533+1830.75+817.422+1830.42C817.348+1830.05+817.292+1829.86+817.255+1829.86L805.398+1800.69ZM782.242+1798.41L804.396+1798.41L793.319+1770.47L782.242+1798.41Z" opacity="1" fill="#959494"/>
<path d="M840.634+1757.27L840.634+1756.44L863.901+1756.44C869.802+1756.44+874.069+1756.57+876.704+1756.83C879.339+1757.09+882.039+1757.95+884.803+1759.42C887.568+1760.88+889.655+1762.87+891.065+1765.37C892.476+1767.88+893.181+1770.95+893.181+1774.59C893.181+1778.74+891.928+1782.7+889.423+1786.47C886.918+1790.24+883.384+1793.42+878.819+1796.02L884.608+1804.92C885.87+1807.15+889.219+1812.03+894.656+1819.56C900.092+1827.09+904.295+1831.69+907.264+1833.34C910.232+1834.99+913.108+1835.82+915.892+1835.82C918.638+1835.82+921.792+1834.76+925.354+1832.64L925.688+1833.76C921.235+1837.39+915.446+1839.21+908.321+1839.21C903.571+1839.21+899.489+1837.81+896.075+1835.01C892.661+1832.21+886.724+1824.5+878.263+1811.88C878.188+1811.81+878.151+1811.73+878.151+1811.66L869.913+1798.97L862.621+1799.19L855.997+1799.19L855.997+1830.58C855.997+1833.11+856.331+1834.92+856.999+1836.01C857.667+1837.11+859.281+1837.65+861.842+1837.65L861.842+1838.43L840.634+1838.43L840.634+1837.65C843.269+1837.54+844.911+1836.98+845.56+1835.98C846.209+1834.98+846.534+1832.94+846.534+1829.86L846.534+1764.68C846.534+1762.56+846.256+1760.81+845.699+1759.42C845.143+1758.03+843.454+1757.31+840.634+1757.27ZM855.997+1758.61L855.997+1797.07L864.569+1797.07C871.323+1797.07+876.333+1795.48+879.599+1792.29C882.864+1789.09+884.497+1784.9+884.497+1779.71C884.497+1774.66+882.892+1769.88+879.682+1765.37C876.472+1760.86+870.822+1758.61+862.732+1758.61L855.997+1758.61Z" opacity="1" fill="#959494"/>
<path d="M978.792+1756.44L991.094+1756.44L991.094+1757.27C989.535+1757.39+988.255+1757.76+987.253+1758.39C986.251+1759.02+985.101+1760.32+983.802+1762.28L963.763+1792.62L963.763+1830.25C963.763+1833.29+964.152+1835.29+964.932+1836.23C965.711+1837.18+967.399+1837.65+969.997+1837.65L969.997+1838.43L948.121+1838.43L948.121+1837.65C952.314+1837.91+954.411+1836.26+954.411+1832.7L954.3+1830.36L954.3+1795.68L934.205+1762.39C932.09+1758.87+929.733+1757.16+927.136+1757.27L927.136+1756.44L946.507+1756.44L946.507+1757.27C944.688+1757.27+943.779+1757.96+943.779+1759.33C943.779+1760.04+944.243+1761.13+945.171+1762.62L961.703+1789.89L979.794+1762.39C980.128+1762.1+980.499+1761.55+980.907+1760.75C981.315+1759.95+981.52+1759.41+981.52+1759.11C981.52+1757.89+980.722+1757.27+979.126+1757.27L978.792+1757.27L978.792+1756.44Z" opacity="1" fill="#959494"/>
<path d="M1104.43+1756.44L1117.34+1756.44L1117.34+1757.27C1113+1757.5+1110.83+1759.78+1110.83+1764.12C1110.83+1765.05+1110.94+1766.33+1111.16+1767.96L1119.73+1830.08C1120.25+1833.2+1120.84+1835.19+1121.49+1836.07C1122.14+1836.94+1123.48+1837.47+1125.52+1837.65L1125.52+1838.43L1107.1+1838.43L1107.1+1837.65C1109.51+1837.73+1110.72+1836.54+1110.72+1834.09C1110.72+1833.53+1110.6+1832.44+1110.38+1830.81L1102.03+1770.58L1072.64+1838.43L1072.08+1838.43L1042.53+1770.69L1034.23+1831.25C1034.08+1832.18+1034.01+1833.24+1034.01+1834.42C1034.01+1836.58+1035.25+1837.65+1037.74+1837.65L1037.74+1838.43L1025.22+1838.43L1025.22+1837.65C1027.11+1837.65+1028.32+1837.41+1028.86+1836.93C1029.4+1836.45+1029.82+1835.7+1030.11+1834.67C1030.41+1833.65+1030.63+1832.51+1030.78+1831.25L1040.13+1765.01C1038.61+1761.34+1037.09+1759.13+1035.57+1758.39C1034.05+1757.64+1032.58+1757.27+1031.17+1757.27L1031.17+1756.44L1046.65+1756.44L1075.48+1823.51L1104.43+1756.44Z" opacity="1" fill="#959494"/>
<path d="M1151.63+1756.44L1151.63+1757.27C1150.55+1757.16+1149.36+1757.33+1148.04+1757.77C1146.72+1758.22+1145.94+1758.87+1145.7+1759.72C1145.46+1760.58+1145.34+1762.6+1145.34+1765.79L1145.34+1828.75C1145.34+1832.16+1145.48+1834.25+1145.76+1835.01C1146.03+1835.77+1146.57+1836.4+1147.37+1836.9C1148.17+1837.4+1149.59+1837.65+1151.63+1837.65L1151.63+1838.43L1129.75+1838.43L1129.75+1837.65C1132.5+1837.65+1134.21+1837.12+1134.87+1836.07C1135.54+1835.01+1135.88+1832.61+1135.88+1828.86L1135.88+1766.51C1135.88+1762.62+1135.5+1760.07+1134.76+1758.86C1134.02+1757.65+1132.35+1757.13+1129.75+1757.27L1129.75+1756.44L1151.63+1756.44Z" opacity="1" fill="#959494"/>
<path d="M1159.81+1757.27L1159.81+1756.44L1197.44+1756.44C1207.01+1756.44+1214.58+1757.19+1220.12+1758.69C1225.67+1760.2+1230.5+1762.56+1234.62+1765.79C1238.74+1769.02+1242.01+1773.15+1244.42+1778.18C1246.83+1783.2+1248.04+1788.82+1248.04+1795.01C1248.04+1800.99+1246.79+1806.86+1244.28+1812.63C1241.78+1818.4+1238.37+1823.37+1234.07+1827.55C1229.76+1831.72+1225.23+1834.58+1220.46+1836.12C1215.69+1837.66+1208.31+1838.43+1198.33+1838.43L1159.81+1838.43L1159.81+1837.65L1160.81+1837.65C1162.82+1837.65+1164.13+1836.85+1164.77+1835.23C1165.4+1833.62+1165.71+1830.69+1165.71+1826.46L1165.71+1766.74C1165.71+1762.28+1165.33+1759.59+1164.57+1758.67C1163.81+1757.74+1162.22+1757.27+1159.81+1757.27ZM1187.75+1758.16L1175.17+1758.16L1175.17+1821.79C1175.17+1825.8+1175.85+1828.77+1177.21+1830.72C1178.56+1832.67+1180.87+1834.08+1184.14+1834.95C1187.4+1835.82+1191.8+1836.26+1197.33+1836.26C1212.69+1836.26+1223.48+1832.32+1229.7+1824.43C1235.91+1816.55+1239.02+1807.95+1239.02+1798.63C1239.02+1787.68+1234.76+1778.2+1226.25+1770.19C1217.73+1762.17+1204.9+1758.16+1187.75+1758.16Z" opacity="1" fill="#959494"/>
<path d="M1256.05+1757.27L1256.05+1756.44L1293.68+1756.44C1303.26+1756.44+1310.82+1757.19+1316.37+1758.69C1321.91+1760.2+1326.75+1762.56+1330.87+1765.79C1334.99+1769.02+1338.25+1773.15+1340.66+1778.18C1343.08+1783.2+1344.28+1788.82+1344.28+1795.01C1344.28+1800.99+1343.03+1806.86+1340.52+1812.63C1338.02+1818.4+1334.62+1823.37+1330.31+1827.55C1326.01+1831.72+1321.47+1834.58+1316.7+1836.12C1311.93+1837.66+1304.56+1838.43+1294.57+1838.43L1256.05+1838.43L1256.05+1837.65L1257.06+1837.65C1259.06+1837.65+1260.38+1836.85+1261.01+1835.23C1261.64+1833.62+1261.96+1830.69+1261.96+1826.46L1261.96+1766.74C1261.96+1762.28+1261.57+1759.59+1260.81+1758.67C1260.05+1757.74+1258.47+1757.27+1256.05+1757.27ZM1284+1758.16L1271.42+1758.16L1271.42+1821.79C1271.42+1825.8+1272.1+1828.77+1273.45+1830.72C1274.8+1832.67+1277.11+1834.08+1280.38+1834.95C1283.65+1835.82+1288.04+1836.26+1293.57+1836.26C1308.94+1836.26+1319.73+1832.32+1325.94+1824.43C1332.16+1816.55+1335.26+1807.95+1335.26+1798.63C1335.26+1787.68+1331.01+1778.2+1322.49+1770.19C1313.97+1762.17+1301.14+1758.16+1284+1758.16Z" opacity="1" fill="#959494"/>
<path d="M1349.35+1838.43L1349.35+1837.65C1351.91+1837.65+1353.57+1837.17+1354.33+1836.21C1355.09+1835.24+1355.47+1833.59+1355.47+1831.25L1355.47+1764.12C1355.47+1761.75+1355.17+1760.03+1354.58+1758.97C1353.99+1757.91+1352.21+1757.35+1349.24+1757.27L1349.24+1756.44L1371.22+1756.44L1371.22+1757.27C1369.18+1757.27+1367.75+1757.53+1366.94+1758.05C1366.12+1758.57+1365.58+1759.18+1365.32+1759.89C1365.06+1760.59+1364.93+1762.19+1364.93+1764.68L1364.93+1822.23C1364.93+1827.17+1366.12+1830.65+1368.5+1832.67C1370.87+1834.69+1374.93+1835.7+1380.69+1835.7L1390.71+1835.7C1395.53+1835.7+1399.06+1834.52+1401.31+1832.14C1403.56+1829.77+1404.81+1825.3+1405.07+1818.73L1405.85+1818.73L1405.85+1838.43L1349.35+1838.43Z" opacity="1" fill="#959494"/>
<path d="M1414.2+1757.39L1414.2+1756.44L1465.74+1756.44L1465.74+1767.74L1464.91+1767.74C1463.79+1763.55+1462.86+1761.08+1462.1+1760.34C1461.33+1759.59+1459.47+1759.22+1456.5+1759.22L1429.45+1759.22L1429.45+1796.02L1454.55+1796.02C1457.04+1796.02+1458.62+1795.78+1459.28+1795.32C1459.95+1794.86+1460.3+1794.18+1460.34+1793.29L1461.18+1793.29L1461.18+1801.03L1460.34+1801.03C1460.16+1799.95+1459.72+1799.23+1459.03+1798.85C1458.35+1798.48+1457.08+1798.3+1455.22+1798.3L1429.45+1798.3L1429.45+1823.63C1429.45+1827.45+1429.8+1830.2+1430.51+1831.89C1431.21+1833.58+1432.33+1834.64+1433.87+1835.06C1435.41+1835.49+1437.74+1835.7+1440.86+1835.7L1455.33+1835.7C1459.93+1835.7+1462.87+1835.55+1464.15+1835.23C1465.44+1834.92+1466.52+1834.28+1467.41+1833.34C1468.3+1832.39+1468.99+1830.32+1469.47+1827.13L1470.25+1827.13L1470.25+1838.43L1414.2+1838.43L1414.2+1837.65C1416.09+1837.54+1417.53+1837.18+1418.51+1836.57C1419.49+1835.95+1419.99+1834.37+1419.99+1831.81L1419.99+1765.57C1419.99+1762.56+1419.73+1760.45+1419.21+1759.22C1418.69+1758+1417.02+1757.39+1414.2+1757.39Z" opacity="1" fill="#959494"/>
<path d="M1474.93+1788.61C1474.93+1787.02+1475.5+1785.61+1476.65+1784.38C1477.8+1783.16+1479.25+1782.55+1480.99+1782.55C1482.77+1782.55+1484.23+1783.14+1485.36+1784.33C1486.49+1785.51+1487.06+1786.94+1487.06+1788.61C1487.06+1790.32+1486.49+1791.76+1485.33+1792.93C1484.18+1794.1+1482.74+1794.68+1480.99+1794.68C1479.21+1794.68+1477.76+1794.06+1476.62+1792.82C1475.49+1791.57+1474.93+1790.17+1474.93+1788.61ZM1474.93+1833.53C1474.93+1831.94+1475.5+1830.53+1476.65+1829.3C1477.8+1828.08+1479.25+1827.47+1480.99+1827.47C1482.77+1827.47+1484.23+1828.06+1485.36+1829.25C1486.49+1830.43+1487.06+1831.86+1487.06+1833.53C1487.06+1835.17+1486.49+1836.58+1485.33+1837.76C1484.18+1838.95+1482.74+1839.55+1480.99+1839.55C1479.43+1839.55+1478.03+1838.95+1476.79+1837.76C1475.55+1836.58+1474.93+1835.17+1474.93+1833.53Z" opacity="1" fill="#959494"/>
<path d="M675.256+1886.6L671.359+1896.51L670.58+1896.51C670.729+1895.91+670.803+1895.12+670.803+1894.11C670.803+1893.26+670.497+1892.71+669.884+1892.47C669.272+1892.23+668.298+1892.11+666.962+1892.11L645.531+1892.11L645.531+1962.3C645.531+1965.2+645.763+1967.17+646.227+1968.23C646.691+1969.29+647.322+1969.96+648.12+1970.24C648.917+1970.51+650.207+1970.65+651.988+1970.65L651.988+1971.43L629.778+1971.43L629.778+1970.65C632.562+1970.47+634.306+1969.93+635.011+1969.04C635.716+1968.15+636.068+1966.29+636.068+1963.47L636.068+1892.11L615.528+1892.11C613.45+1892.11+612.096+1892.23+611.465+1892.47C610.834+1892.71+610.519+1893.32+610.519+1894.28C610.519+1894.76+610.667+1895.51+610.964+1896.51L610.185+1896.51L606.288+1886.6L607.067+1886.6C607.735+1887.94+608.394+1888.74+609.043+1889.02C609.693+1889.3+611.094+1889.44+613.246+1889.44L667.741+1889.44C669.894+1889.44+671.443+1889.3+672.389+1889.02C673.335+1888.74+674.031+1887.94+674.477+1886.6L675.256+1886.6Z" opacity="1" fill="#959494"/>
<path d="M739.771+1930.52L694.738+1930.52L694.738+1962.08C694.738+1965.05+694.877+1966.94+695.156+1967.76C695.434+1968.57+695.954+1969.26+696.714+1969.82C697.475+1970.37+698.802+1970.65+700.694+1970.65L700.694+1971.43L679.486+1971.43L679.486+1970.65C683.346+1970.91+685.275+1969.04+685.275+1965.03L685.275+1899.07C685.275+1895.32+684.969+1892.95+684.357+1891.94C683.745+1890.94+682.121+1890.39+679.486+1890.27L679.486+1889.44L700.694+1889.44L700.694+1890.27C698.356+1890.42+696.779+1890.87+695.963+1891.61C695.146+1892.35+694.738+1893.87+694.738+1896.17L694.738+1928.24L739.771+1928.24L739.771+1898.9C739.771+1895.56+739.483+1893.29+738.908+1892.08C738.333+1890.88+736.728+1890.27+734.093+1890.27L734.093+1889.44L755.078+1889.44L755.078+1890.27C753.408+1890.27+752.165+1890.47+751.349+1890.86C750.532+1891.25+749.976+1891.85+749.679+1892.67C749.382+1893.48+749.233+1895.56+749.233+1898.9L749.233+1961.86C749.233+1965.09+749.382+1967.1+749.679+1967.9C749.976+1968.7+750.495+1969.35+751.237+1969.87C751.979+1970.39+753.26+1970.65+755.078+1970.65L755.078+1971.43L734.093+1971.43L734.093+1970.65C736.356+1970.65+737.869+1970.19+738.629+1969.26C739.39+1968.33+739.771+1965.83+739.771+1961.75L739.771+1930.52Z" opacity="1" fill="#959494"/>
<path d="M763.984+1890.39L763.984+1889.44L815.529+1889.44L815.529+1900.74L814.694+1900.74C813.581+1896.55+812.644+1894.08+811.883+1893.34C811.123+1892.59+809.258+1892.22+806.289+1892.22L779.236+1892.22L779.236+1929.02L804.341+1929.02C806.827+1929.02+808.404+1928.78+809.072+1928.32C809.74+1927.86+810.093+1927.18+810.13+1926.29L810.965+1926.29L810.965+1934.03L810.13+1934.03C809.944+1932.95+809.508+1932.23+808.822+1931.85C808.135+1931.48+806.864+1931.3+805.009+1931.3L779.236+1931.3L779.236+1956.63C779.236+1960.45+779.589+1963.2+780.294+1964.89C780.999+1966.58+782.122+1967.64+783.662+1968.06C785.202+1968.49+787.53+1968.7+790.647+1968.7L805.12+1968.7C809.722+1968.7+812.663+1968.55+813.943+1968.23C815.223+1967.92+816.309+1967.28+817.199+1966.34C818.09+1965.39+818.776+1963.32+819.259+1960.13L820.038+1960.13L820.038+1971.43L763.984+1971.43L763.984+1970.65C765.877+1970.54+767.315+1970.18+768.298+1969.57C769.282+1968.95+769.773+1967.37+769.773+1964.81L769.773+1898.57C769.773+1895.56+769.514+1893.45+768.994+1892.22C768.475+1891+766.805+1890.39+763.984+1890.39Z" opacity="1" fill="#959494"/>
<path d="M859.059+1890.27L859.059+1889.44L882.438+1889.44C890.75+1889.44+896.79+1890.37+900.556+1892.22C904.323+1894.08+907.069+1896.39+908.794+1899.15C910.52+1901.92+911.383+1905.56+911.383+1910.09C911.383+1917.03+908.989+1922.24+904.202+1925.73C899.415+1929.22+892.921+1930.89+884.72+1930.74L884.72+1929.96C889.915+1929.96+894.136+1928.37+897.383+1925.18C900.63+1921.98+902.254+1917.79+902.254+1912.59C902.254+1908.55+901.465+1904.96+899.888+1901.82C898.311+1898.69+896.094+1896.3+893.236+1894.67C890.379+1893.04+886.019+1892.22+880.155+1892.22L874.311+1892.22L874.311+1962.41C874.311+1966.39+874.756+1968.75+875.646+1969.51C876.537+1970.27+878.226+1970.65+880.712+1970.65L880.712+1971.43L859.059+1971.43L859.059+1970.65C862.918+1970.65+864.848+1968.89+864.848+1965.36L864.848+1897.45C864.848+1894.56+864.477+1892.64+863.734+1891.69C862.992+1890.75+861.434+1890.27+859.059+1890.27Z" opacity="1" fill="#959494"/>
<path d="M964.709+1888.21C976.213+1888.21+985.62+1891.71+992.931+1898.71C1000.24+1905.7+1003.9+1914.43+1003.9+1924.9C1003.9+1938.37+999.666+1949.7+991.205+1958.91C982.744+1968.11+971.519+1972.71+957.528+1972.71C946.173+1972.71+936.877+1969+929.641+1961.58C922.404+1954.16+918.786+1945.25+918.786+1934.86C918.786+1927.85+920.53+1920.65+924.019+1913.26C927.507+1905.88+932.758+1899.86+939.771+1895.2C946.785+1890.54+955.098+1888.21+964.709+1888.21ZM964.375+1968.37C970.016+1968.37+975.582+1966.86+981.074+1963.83C986.566+1960.81+990.89+1956.64+994.044+1951.34C997.198+1946.03+998.775+1940.58+998.775+1934.97C998.775+1927.03+996.651+1919.81+992.402+1913.32C988.153+1906.82+982.642+1901.74+975.87+1898.07C969.097+1894.39+962.835+1892.56+957.083+1892.56C948.956+1892.56+941.581+1895.62+934.957+1901.74C928.333+1907.86+925.021+1915.47+925.021+1924.56C925.021+1936.18+929.065+1946.38+937.155+1955.18C945.245+1963.97+954.318+1968.37+964.375+1968.37Z" opacity="1" fill="#959494"/>
<path d="M1012.02+1890.27L1012.02+1889.44L1049.65+1889.44C1059.23+1889.44+1066.79+1890.19+1072.34+1891.69C1077.88+1893.2+1082.72+1895.56+1086.84+1898.79C1090.96+1902.02+1094.22+1906.15+1096.63+1911.18C1099.04+1916.2+1100.25+1921.82+1100.25+1928.01C1100.25+1933.99+1099+1939.86+1096.49+1945.63C1093.99+1951.4+1090.58+1956.37+1086.28+1960.55C1081.97+1964.72+1077.44+1967.58+1072.67+1969.12C1067.9+1970.66+1060.53+1971.43+1050.54+1971.43L1012.02+1971.43L1012.02+1970.65L1013.03+1970.65C1015.03+1970.65+1016.35+1969.85+1016.98+1968.23C1017.61+1966.62+1017.92+1963.69+1017.92+1959.46L1017.92+1899.74C1017.92+1895.28+1017.54+1892.59+1016.78+1891.67C1016.02+1890.74+1014.44+1890.27+1012.02+1890.27ZM1039.97+1891.16L1027.39+1891.16L1027.39+1954.79C1027.39+1958.8+1028.06+1961.77+1029.42+1963.72C1030.77+1965.67+1033.08+1967.08+1036.35+1967.95C1039.61+1968.82+1044.01+1969.26+1049.54+1969.26C1064.9+1969.26+1075.69+1965.32+1081.91+1957.43C1088.13+1949.55+1091.23+1940.95+1091.23+1931.63C1091.23+1920.68+1086.98+1911.2+1078.46+1903.19C1069.94+1895.17+1057.11+1891.16+1039.97+1891.16Z" opacity="1" fill="#959494"/>
<path d="M1178.96+1893.56L1182.02+1902.24L1181.24+1902.24C1173.3+1894.34+1163.95+1890.39+1153.19+1890.39C1142.02+1890.39+1132.99+1893.71+1126.11+1900.35C1119.22+1906.99+1115.78+1915.03+1115.78+1924.45C1115.78+1930.28+1117.31+1936.98+1120.37+1944.55C1123.44+1952.12+1128.27+1958.34+1134.87+1963.22C1141.48+1968.1+1149.48+1970.54+1158.87+1970.54C1165.03+1970.54+1171.06+1969.55+1176.98+1967.56C1182.9+1965.58+1187.31+1962.92+1190.2+1959.58L1190.93+1959.8L1185.19+1968.59C1175.92+1970.6+1169.9+1971.78+1167.13+1972.16C1164.37+1972.53+1160.67+1972.71+1156.03+1972.71C1138.84+1972.71+1126.55+1968.73+1119.15+1960.77C1111.75+1952.81+1108.04+1943.28+1108.04+1932.19C1108.04+1924.69+1109.95+1917.48+1113.75+1910.56C1117.55+1903.64+1123.04+1898.19+1130.2+1894.2C1137.36+1890.21+1145.54+1888.21+1154.75+1888.21C1159.35+1888.21+1163.33+1888.63+1166.69+1889.47C1170.04+1890.3+1172.84+1891.16+1175.06+1892.05L1178.74+1893.45C1178.85+1893.48+1178.92+1893.52+1178.96+1893.56Z" opacity="1" fill="#959494"/>
<path d="M1239.47+1933.69L1215.53+1933.69L1203.12+1964.7C1202.26+1966.92+1201.84+1968.3+1201.84+1968.82C1201.84+1970.04+1202.75+1970.65+1204.57+1970.65L1204.57+1971.43L1192.38+1971.43L1192.38+1970.65C1194.01+1970.65+1195.38+1970.25+1196.49+1969.46C1197.61+1968.66+1198.83+1966.59+1200.17+1963.25L1229.89+1888.21L1231.28+1888.21L1260.56+1960.69C1260.56+1961.06+1261.31+1962.81+1262.82+1965.95C1264.32+1969.08+1266.61+1970.65+1269.69+1970.65L1269.69+1971.43L1250.54+1971.43L1250.54+1970.65C1252.29+1970.65+1253.16+1969.97+1253.16+1968.59C1253.16+1967.67+1252.73+1966.18+1251.88+1964.14C1251.73+1963.99+1251.6+1963.75+1251.49+1963.42C1251.42+1963.05+1251.36+1962.86+1251.32+1962.86L1239.47+1933.69ZM1216.31+1931.41L1238.46+1931.41L1227.39+1903.47L1216.31+1931.41Z" opacity="1" fill="#959494"/>
<path d="M1314+1890.5L1317.9+1900.74L1317.23+1900.85C1317.23+1900.81+1316.2+1899.72+1314.14+1897.57C1312.08+1895.41+1309.72+1893.75+1307.07+1892.58C1304.42+1891.41+1301.42+1890.83+1298.08+1890.83C1292.48+1890.83+1288.03+1892.44+1284.75+1895.65C1281.47+1898.86+1279.82+1902.72+1279.82+1907.25C1279.82+1910.26+1280.59+1912.88+1282.13+1915.13C1283.67+1917.37+1286.89+1919.46+1291.79+1921.39C1300.21+1924.21+1305.98+1926.33+1309.07+1927.76C1312.17+1929.19+1315.16+1931.61+1318.04+1935.03C1320.91+1938.44+1322.35+1942.82+1322.35+1948.16C1322.35+1950.39+1322.09+1952.52+1321.57+1954.54C1321.05+1956.56+1320.22+1958.51+1319.07+1960.38C1317.92+1962.26+1316.53+1963.96+1314.92+1965.5C1313.31+1967.04+1311.66+1968.21+1309.99+1969.01C1308.32+1969.81+1305.69+1970.41+1302.09+1970.82C1298.49+1971.23+1296.11+1971.43+1294.96+1971.43L1273.09+1971.43L1273.09+1947.61L1273.92+1947.61C1274+1955.51+1275.85+1961.02+1279.49+1964.14C1283.13+1967.26+1288.79+1968.82+1296.47+1968.82C1303.44+1968.82+1308.74+1967.16+1312.36+1963.86C1315.98+1960.56+1317.79+1956.59+1317.79+1951.95C1317.79+1949.13+1317.16+1946.73+1315.89+1944.74C1314.63+1942.76+1312.87+1941.01+1310.61+1939.51C1308.34+1938.01+1304.06+1936.18+1297.75+1934.03C1291.48+1931.84+1287.07+1929.92+1284.53+1928.26C1281.98+1926.61+1279.86+1924.13+1278.15+1920.81C1276.45+1917.48+1275.59+1914.1+1275.59+1910.65C1275.59+1904.3+1277.77+1898.98+1282.13+1894.67C1286.49+1890.37+1292.22+1888.21+1299.31+1888.21C1302.05+1888.21+1305.02+1888.53+1308.21+1889.16C1311.4+1889.79+1313.18+1890.2+1313.56+1890.39C1313.7+1890.46+1313.85+1890.5+1314+1890.5Z" opacity="1" fill="#959494"/>
<path d="M1393.82+1886.6L1389.93+1896.51L1389.15+1896.51C1389.3+1895.91+1389.37+1895.12+1389.37+1894.11C1389.37+1893.26+1389.06+1892.71+1388.45+1892.47C1387.84+1892.23+1386.87+1892.11+1385.53+1892.11L1364.1+1892.11L1364.1+1962.3C1364.1+1965.2+1364.33+1967.17+1364.79+1968.23C1365.26+1969.29+1365.89+1969.96+1366.69+1970.24C1367.48+1970.51+1368.77+1970.65+1370.56+1970.65L1370.56+1971.43L1348.35+1971.43L1348.35+1970.65C1351.13+1970.47+1352.87+1969.93+1353.58+1969.04C1354.28+1968.15+1354.64+1966.29+1354.64+1963.47L1354.64+1892.11L1334.1+1892.11C1332.02+1892.11+1330.66+1892.23+1330.03+1892.47C1329.4+1892.71+1329.09+1893.32+1329.09+1894.28C1329.09+1894.76+1329.23+1895.51+1329.53+1896.51L1328.75+1896.51L1324.86+1886.6L1325.63+1886.6C1326.3+1887.94+1326.96+1888.74+1327.61+1889.02C1328.26+1889.3+1329.66+1889.44+1331.81+1889.44L1386.31+1889.44C1388.46+1889.44+1390.01+1889.3+1390.96+1889.02C1391.9+1888.74+1392.6+1887.94+1393.04+1886.6L1393.82+1886.6Z" opacity="1" fill="#959494"/>
</g>
</g>
</svg>
